<svg width="32" height="32" viewBox="0 0 32 32" fill="none" xmlns="http://www.w3.org/2000/svg">
<g clip-path="url(#clip0_45_189)">
<mask id="mask0_45_189" style="mask-type:luminance" maskUnits="userSpaceOnUse" x="0" y="0" width="32" height="32">
<path d="M32 0H0V32H32V0Z" fill="white"/>
</mask>
<g mask="url(#mask0_45_189)">
<path d="M23.1608 2.8172C22.3374 3.64062 21.583 4.53307 20.9124 5.48469L20.7004 5.41566C19.4776 5.01628 18.2104 4.76974 16.9334 4.68592C16.5488 4.65634 15.114 4.65634 14.6455 4.68592C13.2304 4.7796 12.1457 4.99162 10.913 5.42059C10.8637 5.44031 10.8194 5.45511 10.775 5.4699C10.0798 4.52321 9.30564 3.63569 8.45264 2.82213C12.5451 0.726601 17.3328 0.475137 21.6175 2.12691C22.0761 2.29948 22.5247 2.50164 22.9636 2.71859L23.1608 2.8172Z" fill="#F00500"/>
<path d="M30.7935 21.5192C30.1722 23.2894 29.2403 24.9313 28.0323 26.3612C27.3765 27.1303 26.6517 27.8354 25.8727 28.4764C24.0483 29.9457 21.9183 30.996 19.6452 31.5482C17.1306 32.1547 14.5075 32.1547 11.9929 31.5482C9.71489 30.996 7.58978 29.9457 5.76544 28.4764C4.98639 27.8354 4.26158 27.1303 3.6058 26.3612C0.129686 22.2539 -0.925475 16.6132 0.844632 11.5297C1.17992 10.588 1.59902 9.68072 2.10195 8.81786C2.33369 8.4234 2.61967 7.97964 2.75773 7.79721C3.23108 9.83357 3.81289 11.6234 4.02984 12.2693C4.01505 12.3038 3.99533 12.3433 3.9756 12.3778C2.82676 14.7051 2.2055 16.9485 2.05758 19.335C2.05758 19.3645 2.05264 19.3991 2.05264 19.4286C2.0132 20.1436 2.03292 20.4838 2.15126 20.9325C2.52106 22.3377 3.66004 23.886 5.44494 25.4046C8.36882 27.8897 12.3331 29.6844 15.3358 29.8915C18.4668 30.1035 23.0868 28.2743 26.1636 25.6018C26.6468 25.1729 27.1004 24.7192 27.5244 24.236C27.8301 23.881 28.2838 23.2696 28.2493 23.2696C28.2394 23.2696 28.2493 23.2598 28.269 23.2499C28.2838 23.24 28.2986 23.2253 28.2887 23.2154C28.2838 23.2105 28.2936 23.1957 28.3084 23.1907C28.3232 23.1858 28.3331 23.1759 28.3281 23.1661C28.3232 23.1562 28.3281 23.1464 28.3479 23.1414C28.3627 23.1365 28.3676 23.1217 28.3627 23.1118C28.3577 23.102 28.3627 23.0921 28.3725 23.0921C28.3824 23.0921 28.3922 23.0773 28.3922 23.0675C28.3922 23.0576 28.4021 23.0428 28.412 23.0428C28.4218 23.0428 28.4317 23.033 28.4317 23.0231C28.4465 22.9837 28.4711 22.9442 28.4958 22.9097C28.5697 22.7963 28.8656 22.2687 28.905 22.18C29.1861 21.5439 29.3636 20.9769 29.4474 20.4098C29.4868 20.1387 29.5115 19.6407 29.4918 19.5223C29.4868 19.5026 29.4868 19.4681 29.4819 19.4139C29.4721 19.3152 29.4671 19.1673 29.4573 19.0194C29.4474 18.7975 29.4277 18.4869 29.4129 18.334C29.2009 16.0955 28.6289 14.2662 27.5442 12.3285C27.4998 12.2545 27.4603 12.1806 27.4357 12.1214C27.4258 12.1066 27.4209 12.0918 27.416 12.082C27.5688 11.6234 28.195 9.70538 28.693 7.51123L28.7029 7.52109L28.7768 7.61971C28.905 7.79228 29.2452 8.30507 29.3981 8.5516C30.0933 9.68565 30.6357 10.9035 31.0203 12.1756C31.9127 15.2376 31.8388 18.5017 30.7935 21.5192Z" fill="#F00500"/>
<path d="M24.3935 15.627C24.3787 15.7059 24.147 15.9425 23.9152 16.1151C23.2348 16.6131 22.0169 17.0766 20.7793 17.2985C20.0743 17.4267 19.3692 17.4464 19.1572 17.3428C19.0191 17.2738 18.9994 17.2196 19.0487 17.0421C19.1522 16.6723 19.4875 16.2679 20.0102 15.8883C20.2764 15.696 21.3562 15.0402 21.8592 14.7641C22.6875 14.3105 23.3581 14.0393 23.8117 13.9752C23.9547 13.9555 24.1273 13.9505 24.1815 13.9752C24.2703 14.0097 24.3689 14.271 24.4083 14.5866C24.428 14.7542 24.4182 15.4938 24.3935 15.627Z" fill="black"/>
<path d="M12.7769 17.2591C12.7473 17.3182 12.5993 17.3823 12.4317 17.407C12.2641 17.4316 11.7513 17.4169 11.4604 17.3823C10.4151 17.2443 9.30567 16.9238 8.49704 16.5293C8.04342 16.3075 7.71799 16.0856 7.47639 15.844L7.33833 15.701L7.32354 15.5136C7.29889 15.1882 7.30382 14.6754 7.34326 14.493C7.36792 14.3401 7.42215 14.1922 7.49611 14.0591C7.53556 14.0098 7.53556 14.0098 7.71306 14.0098C7.93001 14.0098 8.11245 14.0443 8.40829 14.138C9.01476 14.3253 9.91707 14.7789 11.0166 15.4397C11.9238 15.982 12.2641 16.2483 12.5254 16.6132C12.7029 16.84 12.8212 17.1605 12.7769 17.2591Z" fill="black"/>
<path d="M19.7587 24.1226C19.7587 24.1374 19.6995 24.374 19.6256 24.6551C19.5516 24.9361 19.4925 25.1629 19.4925 25.1728C19.4382 25.1777 19.3889 25.1827 19.3347 25.1777H19.1769L18.9599 25.6905C18.8416 25.9716 18.7331 26.2329 18.7183 26.2723L18.6888 26.3414L18.5852 26.1737L18.4817 26.0061V24.6403L18.4422 24.6502C18.3584 24.6699 17.7618 24.7488 17.5005 24.7734C16.4206 24.8819 15.3359 24.8572 14.261 24.7044C14.0884 24.6797 13.9405 24.66 13.9356 24.6649C13.9307 24.6699 13.9356 24.9854 13.9455 25.375L13.9602 26.0751L13.8764 26.2033C13.8321 26.2723 13.7877 26.3315 13.7877 26.3364C13.7729 26.3512 13.7236 26.2723 13.6102 26.0455C13.4869 25.8089 13.3982 25.5574 13.3341 25.2961L13.2995 25.1531L13.1467 25.1629L12.9938 25.1777L12.9544 24.9953C12.9347 24.8967 12.91 24.7438 12.9002 24.66L12.8854 24.5022L12.7572 24.3888C12.6832 24.3247 12.6092 24.2606 12.5945 24.2508C12.5698 24.231 12.5599 24.1965 12.5599 24.1669V24.1078L13.1763 24.1127L13.7926 24.1176L13.8123 24.1817L13.832 24.2458L14.0441 24.2557C14.1624 24.2606 14.5371 24.2705 14.8724 24.2804L15.4888 24.2951L15.6465 24.0486L15.8092 23.8021H16.0163L16.0114 23.2893L16.0065 22.7765L15.7353 22.6582C14.8626 22.2736 14.3498 21.8347 14.1575 21.3022C14.118 21.1938 14.118 21.1543 14.1082 20.6612C14.1032 20.1731 14.1032 20.1287 14.1377 20.0203C14.2068 19.7737 14.3991 19.5814 14.6456 19.5173C14.7294 19.4927 14.9513 19.4927 16.1149 19.4927L17.4857 19.4976L17.6385 19.5716C17.821 19.6603 17.9048 19.7244 18.0083 19.8625C18.1267 20.0203 18.1612 20.1435 18.1612 20.4443C18.1612 20.8733 18.1316 21.2431 18.0872 21.391C18.0231 21.5931 17.9245 21.7854 17.8012 21.958C17.5547 22.2736 17.106 22.5891 16.6968 22.7321L16.5784 22.7765L16.5834 23.2942L16.5883 23.8119L16.6968 23.8218L16.8052 23.8317L16.9532 24.0535L17.0961 24.2754H17.7569C18.1217 24.2754 18.4422 24.2803 18.4718 24.2853C18.5211 24.2951 18.531 24.2902 18.5803 24.2064L18.6394 24.1176H19.2065C19.6305 24.0979 19.7587 24.1078 19.7587 24.1226Z" fill="black"/>
<path d="M17.1552 25.5378C17.0615 25.592 16.9974 25.6166 16.9826 25.6068C16.9678 25.6019 16.8988 25.5427 16.8248 25.4885L16.6917 25.38L16.5537 25.5279C16.2529 25.8533 16.243 25.8681 16.1543 25.873C16.0162 25.8878 15.9866 25.8632 15.819 25.6117C15.7302 25.4835 15.6612 25.375 15.6612 25.375C15.6612 25.375 15.5971 25.3652 15.5232 25.3603L15.3851 25.3455L15.321 25.4786L15.2569 25.6117L15.1435 25.5772C15.0547 25.5476 14.966 25.5131 14.8822 25.4737L14.7343 25.3997V25.1187L16.0458 25.1236L17.3574 25.1285L17.3623 25.2616C17.3672 25.4194 17.3722 25.4145 17.1552 25.5378Z" fill="black"/>
<path d="M29.4819 19.5224C29.477 19.5027 29.477 19.4682 29.4721 19.414C28.2887 19.2858 24.9112 19.2069 21.7753 21.7955C21.7753 21.7955 20.7645 17.1606 16.0311 17.1606C11.2976 17.1606 9.54232 21.7955 9.54232 21.7955C6.88962 18.9406 3.33955 19.1477 2.05757 19.3351C2.05757 19.3646 2.05264 19.3992 2.05264 19.4287C2.0132 20.1437 2.03292 20.4839 2.15125 20.9326C2.52105 22.3378 3.66004 23.8861 5.44494 25.4047C8.36882 27.8898 12.3331 29.6845 15.3358 29.8916C18.4668 30.1036 23.0868 28.2744 26.1636 25.6019C26.6468 25.173 27.1004 24.7194 27.5244 24.2361C27.8301 23.8811 28.2838 23.2697 28.2493 23.2697C28.2394 23.2697 28.2493 23.2599 28.269 23.25C28.2838 23.2402 28.2986 23.2254 28.2887 23.2155C28.2838 23.2106 28.2936 23.1958 28.3084 23.1908C28.3232 23.1859 28.3331 23.1761 28.3281 23.1662C28.3232 23.1563 28.3281 23.1465 28.3479 23.1415C28.3627 23.1366 28.3676 23.1218 28.3627 23.112C28.3577 23.1021 28.3627 23.0922 28.3725 23.0922C28.3824 23.0922 28.3922 23.0774 28.3922 23.0676C28.3922 23.0577 28.4021 23.0429 28.412 23.0429C28.4218 23.0429 28.4317 23.0331 28.4317 23.0232C28.4465 22.9838 28.4711 22.9443 28.4958 22.9098C28.5697 22.7964 28.8656 22.2688 28.905 22.1801C29.1861 21.544 29.3636 20.977 29.4474 20.41C29.477 20.1388 29.5016 19.6408 29.4819 19.5224ZM17.1553 25.5378C17.0616 25.5921 16.9975 25.6167 16.9827 25.6069C16.9679 25.6019 16.8989 25.5428 16.8249 25.4885L16.6918 25.3801L16.5537 25.528C16.2529 25.8534 16.2431 25.8682 16.1543 25.8731C16.0163 25.8879 15.9867 25.8633 15.8191 25.6118C15.7303 25.4836 15.6613 25.3751 15.6613 25.3751C15.6613 25.3751 15.5972 25.3653 15.5232 25.3603L15.3852 25.3455L15.3211 25.4787L15.257 25.6118L15.1435 25.5773C15.0548 25.5477 14.966 25.5132 14.8822 25.4737L14.7343 25.3998V25.1187L16.0459 25.1237L17.3574 25.1286L17.3623 25.2617C17.3673 25.4195 17.3722 25.4146 17.1553 25.5378ZM19.6206 24.6503C19.5466 24.9314 19.4875 25.1582 19.4875 25.168C19.4332 25.173 19.3839 25.1779 19.3297 25.173H19.1719L18.9599 25.6907C18.8415 25.9717 18.7331 26.2331 18.7183 26.2725L18.6887 26.3415L18.5852 26.1739L18.4816 26.0063V24.6405L18.4422 24.6503C18.3583 24.67 17.7617 24.7489 17.5004 24.7736C16.4206 24.8821 15.3358 24.8574 14.261 24.7046C14.0884 24.6799 13.9405 24.6602 13.9355 24.6651C13.9306 24.67 13.9355 24.9856 13.9454 25.3751L13.9602 26.0753L13.8764 26.2035C13.832 26.2725 13.7876 26.3317 13.7876 26.3366C13.7728 26.3514 13.7235 26.2725 13.6101 26.0457C13.4868 25.809 13.3981 25.5576 13.334 25.2962L13.2995 25.1532L13.1466 25.1631L12.9938 25.1779L12.9543 24.9955C12.9346 24.8969 12.91 24.744 12.9001 24.6602L12.8853 24.5024L12.7571 24.389C12.6831 24.3249 12.6092 24.2608 12.5944 24.2509C12.5697 24.2312 12.5599 24.1967 12.5599 24.1671V24.1079L13.1762 24.1129L13.7925 24.1178L13.8123 24.1819L13.832 24.246L14.044 24.2559C14.1624 24.2608 14.5371 24.2707 14.8724 24.2805L15.4887 24.2953L15.6465 24.0488L15.8092 23.8022H16.0163L16.0113 23.2895L16.0064 22.7767L15.7352 22.6583C14.8625 22.2737 14.3497 21.8349 14.1574 21.3024C14.118 21.1939 14.118 21.1545 14.1081 20.6614C14.1032 20.1733 14.1032 20.1289 14.1377 20.0204C14.2067 19.7739 14.399 19.5816 14.6456 19.5175C14.7294 19.4928 14.9513 19.4928 16.1149 19.4928L17.4856 19.4978L17.6385 19.5717C17.8209 19.6605 17.9047 19.7246 18.0083 19.8626C18.1266 20.0204 18.1611 20.1437 18.1611 20.4445C18.1611 20.8734 18.1315 21.2432 18.0872 21.3912C18.0231 21.5933 17.9244 21.7856 17.8012 21.9582C17.5546 22.2737 17.106 22.5893 16.6967 22.7323L16.5784 22.7767L16.5833 23.2944L16.5882 23.8121L16.6967 23.822L16.8052 23.8318L16.9531 24.0537L17.0961 24.2756H17.7568C18.1217 24.2756 18.4422 24.2805 18.4717 24.2855C18.5211 24.2953 18.5309 24.2904 18.5802 24.2066L18.6394 24.1178H19.2064C19.6452 24.1178 19.7734 24.1227 19.7734 24.1375C19.7587 24.1326 19.6946 24.3742 19.6206 24.6503Z" fill="white"/>
<path d="M29.4425 19.0194C29.4326 18.7975 29.4129 18.4869 29.3981 18.334C29.1861 16.0955 28.6141 14.2663 27.5294 12.3285C27.485 12.2545 27.4456 12.1806 27.4209 12.1214C27.4111 12.1066 27.4061 12.0918 27.4012 12.082C27.554 11.6234 28.1802 9.70539 28.6782 7.51124C29.3537 4.53312 29.7827 1.05208 28.4711 0.00677595C28.4711 0.00677595 26.203 -0.160867 23.1658 2.81725C22.3423 3.64067 21.5879 4.53312 20.9174 5.48474L20.7054 5.41571C19.4826 5.01633 18.2154 4.7698 16.9383 4.68597C16.5537 4.65639 15.1189 4.65639 14.6505 4.68597C13.2354 4.77966 12.1507 4.99168 10.918 5.42064C10.8687 5.44037 10.8243 5.45516 10.7799 5.46995C10.0847 4.52326 9.31059 3.63574 8.45759 2.82218C5.29704 -0.170728 2.94511 0.00184498 2.94511 0.00184498C1.55466 1.08166 2.02801 4.72049 2.74788 7.79722C3.22123 9.83359 3.80305 11.6234 4.01999 12.2693C4.0052 12.3038 3.98548 12.3433 3.96576 12.3778C2.81691 14.7051 2.19565 16.9485 2.04773 19.335C3.33463 19.1476 6.87978 18.9356 9.53741 21.7954C9.53741 21.7954 11.2927 17.1606 16.0262 17.1606C20.7596 17.1606 21.7704 21.7954 21.7704 21.7954C24.9063 19.2068 28.2838 19.2906 29.4671 19.4139C29.4622 19.3153 29.4523 19.1673 29.4425 19.0194ZM4.95189 10.4105C4.95189 10.4105 3.10782 5.8003 3.58116 3.16733C3.66005 2.72357 3.80798 2.33405 4.03972 2.03821C4.03972 2.03821 6.13032 2.2453 9.50289 5.9926C9.50289 5.9926 8.86191 6.30323 8.00397 6.96394C8.00397 6.96394 7.99904 6.96887 7.99411 6.96887C7.06221 7.68382 5.86899 8.81787 4.95189 10.4105ZM12.7768 17.2592C12.7473 17.3183 12.5993 17.3824 12.4317 17.4071C12.2641 17.4317 11.7513 17.4169 11.4604 17.3824C10.4151 17.2444 9.30567 16.9239 8.49704 16.5294C8.04342 16.3075 7.71799 16.0857 7.47639 15.8441L7.33833 15.7011L7.32354 15.5137C7.29888 15.1883 7.30382 14.6755 7.34326 14.4931C7.36791 14.3402 7.42215 14.1923 7.49611 14.0592C7.53556 14.0099 7.53556 14.0099 7.71306 14.0099C7.93001 14.0099 8.11244 14.0444 8.40828 14.1381C9.01475 14.3254 9.91707 14.779 11.0166 15.4397C11.9238 15.9821 12.2641 16.2484 12.5254 16.6132C12.7029 16.8401 12.8212 17.1606 12.7768 17.2592ZM24.3935 15.6271C24.3787 15.706 24.147 15.9427 23.9152 16.1153C23.2348 16.6132 22.0169 17.0767 20.7793 17.2986C20.0742 17.4268 19.3691 17.4465 19.1571 17.343C19.0191 17.274 18.9993 17.2197 19.0487 17.0422C19.1522 16.6724 19.4875 16.2681 20.0101 15.8884C20.2764 15.6961 21.3562 15.0404 21.8591 14.7643C22.6875 14.3106 23.3581 14.0394 23.8117 13.9753C23.9547 13.9556 24.1272 13.9507 24.1815 13.9753C24.2702 14.0099 24.3688 14.2712 24.4083 14.5867C24.428 14.7544 24.4181 15.494 24.3935 15.6271ZM23.575 6.96394L23.5651 6.95901C22.7368 6.2983 22.1155 5.98767 22.1155 5.98767C25.3747 2.24037 27.3913 2.03328 27.3913 2.03328C27.6132 2.33405 27.7562 2.71864 27.8351 3.1624C28.2936 5.79537 26.5137 10.4105 26.5137 10.4105C25.7691 9.08413 24.7682 7.91063 23.575 6.96394Z" fill="#FFA409"/>
<path d="M27.84 3.16232C27.4554 3.11302 25.636 3.10316 23.575 6.96387L23.5651 6.95893C22.7367 6.29823 22.1155 5.98759 22.1155 5.98759C25.3746 2.24029 27.3913 2.0332 27.3913 2.0332C27.6181 2.33397 27.7611 2.71856 27.84 3.16232Z" fill="#FF9300"/>
<path d="M26.5186 10.4105C25.7691 9.07918 24.7731 7.91061 23.575 6.96392C25.636 3.10321 27.4505 3.11308 27.84 3.16238C28.2985 5.80029 26.5186 10.4105 26.5186 10.4105Z" fill="#FF8300"/>
<path d="M27.9139 3.17714C27.8893 3.17221 27.8646 3.16728 27.84 3.16235L27.9139 3.17714Z" fill="#FF8300"/>
<path d="M9.50295 5.98759C9.50295 5.98759 8.86197 6.29823 8.00403 6.95893C8.00403 6.95893 7.9991 6.96387 7.99417 6.96387C5.85919 3.09823 3.98061 3.11302 3.57629 3.16232C3.65518 2.71856 3.80311 2.32904 4.03485 2.0332C4.03978 2.0332 6.13037 2.24029 9.50295 5.98759Z" fill="#FF9300"/>
<path d="M7.99911 6.96392C7.06228 7.6838 5.86907 8.81292 4.95196 10.4105C4.95196 10.4105 3.10789 5.80029 3.58124 3.16238C3.98062 3.11308 5.86413 3.10321 7.99911 6.96392Z" fill="#FF8300"/>
<path d="M3.58121 3.16235C3.55656 3.16728 3.52697 3.17221 3.50232 3.17714L3.58121 3.16235Z" fill="#FF8300"/>
<path d="M21.5288 12.9694C21.5288 12.9694 19.9509 13.068 20.1482 11.8354C20.3454 10.6027 21.5781 10.4548 21.9232 10.5041C22.2683 10.5534 23.6489 11.0465 23.4024 12.0819C23.1559 13.1173 22.8107 12.9201 22.6135 12.9694C22.4163 13.0187 21.5288 12.9694 21.5288 12.9694Z" fill="white"/>
<path d="M9.8924 12.9694C9.8924 12.9694 8.31459 13.068 8.51181 11.8354C8.70904 10.6027 9.9417 10.4548 10.2869 10.5041C10.632 10.5534 12.0126 11.0465 11.766 12.0819C11.5195 13.1173 11.1744 12.9201 10.9771 12.9694C10.7799 13.0187 9.8924 12.9694 9.8924 12.9694Z" fill="white"/>
</g>
</g>
<defs>
<clipPath id="clip0_45_189">
<rect width="32" height="32" fill="white"/>
</clipPath>
</defs>
</svg>
