<svg width="32" height="32" viewBox="0 0 32 32" fill="none" xmlns="http://www.w3.org/2000/svg">
<g clip-path="url(#clip0_45_224)">
<path d="M16 32C24.8366 32 32 24.8366 32 16C32 7.16344 24.8366 0 16 0C7.16344 0 0 7.16344 0 16C0 24.8366 7.16344 32 16 32Z" fill="#66F9A1"/>
<path d="M9.92497 19.687C10.0355 19.5779 10.1847 19.5168 10.34 19.517H24.706C24.7639 19.5162 24.8207 19.5328 24.8691 19.5646C24.9176 19.5964 24.9553 19.642 24.9776 19.6955C24.9999 19.7489 25.0056 19.8079 24.9941 19.8646C24.9826 19.9214 24.9543 19.9734 24.913 20.014L22.075 22.829C21.9646 22.9384 21.8154 22.9999 21.66 23H7.29397C7.23606 23.0005 7.17931 22.9837 7.131 22.9518C7.08269 22.9198 7.04501 22.8742 7.02278 22.8207C7.00055 22.7672 6.99478 22.7083 7.00622 22.6516C7.01765 22.5948 7.04577 22.5427 7.08697 22.502L9.92497 19.687ZM9.92497 9.17C10.0355 9.06092 10.1847 8.99983 10.34 9H24.706C24.967 9 25.098 9.314 24.913 9.498L22.075 12.313C21.9644 12.4221 21.8153 12.4832 21.66 12.483H7.29397C7.23626 12.4833 7.17977 12.4664 7.13168 12.4345C7.08358 12.4026 7.04606 12.3572 7.02387 12.3039C7.00168 12.2506 6.99584 12.192 7.00707 12.1353C7.01831 12.0787 7.04612 12.0268 7.08697 11.986L9.92497 9.17ZM22.075 14.395C21.9644 14.2859 21.8153 14.2248 21.66 14.225H7.29397C7.23606 14.2245 7.17931 14.2413 7.131 14.2732C7.08269 14.3052 7.04501 14.3508 7.02278 14.4043C7.00055 14.4578 6.99478 14.5167 7.00622 14.5734C7.01765 14.6302 7.04577 14.6823 7.08697 14.723L9.92497 17.538C10.035 17.647 10.185 17.708 10.34 17.708H24.706C24.7639 17.7085 24.8206 17.6917 24.8689 17.6598C24.9173 17.6278 24.9549 17.5822 24.9772 17.5287C24.9994 17.4752 25.0052 17.4163 24.9937 17.3596C24.9823 17.3028 24.9542 17.2507 24.913 17.21L22.075 14.395Z" fill="white"/>
</g>
<defs>
<clipPath id="clip0_45_224">
<rect width="32" height="32" fill="white"/>
</clipPath>
</defs>
</svg>
