<svg width="33" height="33" viewBox="0 0 33 33" fill="none" xmlns="http://www.w3.org/2000/svg">
<g clip-path="url(#clip0_44_181)">
<path d="M16.4684 32.597C25.3049 32.597 32.4684 25.4336 32.4684 16.597C32.4684 7.76049 25.3049 0.597046 16.4684 0.597046C7.63183 0.597046 0.468384 7.76049 0.468384 16.597C0.468384 25.4336 7.63183 32.597 16.4684 32.597Z" fill="#26A17B"/>
<path fill-rule="evenodd" clip-rule="evenodd" d="M18.3904 17.98V17.978C18.2804 17.986 17.7134 18.02 16.4484 18.02C15.4384 18.02 14.7274 17.99 14.4774 17.978V17.981C10.5894 17.81 7.68743 17.133 7.68743 16.323C7.68743 15.514 10.5894 14.837 14.4774 14.663V17.307C14.7314 17.325 15.4594 17.368 16.4654 17.368C17.6724 17.368 18.2774 17.318 18.3904 17.308V14.665C22.2704 14.838 25.1654 15.515 25.1654 16.323C25.1654 17.133 22.2704 17.808 18.3904 17.98ZM18.3904 14.39V12.024H23.8044V8.41602H9.06343V12.024H14.4774V14.389C10.0774 14.591 6.76843 15.463 6.76843 16.507C6.76843 17.551 10.0774 18.422 14.4774 18.625V26.207H18.3904V18.623C22.7834 18.421 26.0844 17.55 26.0844 16.507C26.0844 15.464 22.7834 14.593 18.3904 14.39Z" fill="white"/>
</g>
<defs>
<clipPath id="clip0_44_181">
<rect width="32" height="32" fill="white" transform="translate(0.468384 0.597046)"/>
</clipPath>
</defs>
</svg>
